<?xml version="1.0" standalone="no"?>
<!DOCTYPE svg PUBLIC "-//W3C//DTD SVG 20010904//EN"
 "http://www.w3.org/TR/2001/REC-SVG-20010904/DTD/svg10.dtd">
<svg version="1.0" xmlns="http://www.w3.org/2000/svg"
 width="512.000000pt" height="512.000000pt" viewBox="0 0 512.000000 512.000000"
 preserveAspectRatio="xMidYMid meet">
<metadata>
Created by potrace 1.11, written by Peter Selinger 2001-2013
</metadata>
<g transform="translate(0.000000,512.000000) scale(0.100000,-0.100000)"
fill="#000000" stroke="none">
<path d="M733 3405 c-125 -35 -220 -112 -270 -220 -25 -54 -28 -71 -28 -165 0
-99 2 -110 32 -171 36 -72 118 -158 194 -202 25 -15 99 -47 164 -72 177 -67
227 -114 233 -218 2 -47 -1 -70 -16 -97 -37 -68 -136 -101 -237 -80 -99 21
-149 74 -171 180 l-11 55 -111 3 c-131 3 -130 4 -113 -90 14 -81 69 -193 118
-240 121 -117 306 -164 482 -123 129 31 228 111 273 223 18 47 23 76 23 163 0
102 -1 108 -38 181 -61 125 -169 210 -347 274 -106 38 -160 67 -199 108 -30
31 -35 44 -39 95 -3 48 0 67 18 99 57 100 226 118 311 33 35 -35 59 -91 59
-138 0 -23 2 -23 121 -23 l121 0 -7 57 c-21 166 -119 298 -262 354 -74 28
-224 36 -300 14z"/>
<path d="M2073 3383 c3 -10 86 -215 185 -456 l181 -438 7 -260 7 -259 114 0
113 0 0 183 c1 320 -10 275 182 741 94 226 179 432 189 459 l19 47 -133 0
-132 0 -104 -288 c-57 -158 -111 -304 -119 -325 l-15 -39 -103 284 c-57 155
-111 302 -120 326 l-16 42 -130 0 c-119 0 -130 -1 -125 -17z"/>
<path d="M3873 3218 c4 -101 7 -423 7 -715 l0 -533 105 0 105 0 1 508 1 507
67 -270 66 -270 60 -3 60 -3 54 213 c30 117 65 249 78 293 l23 80 -6 -527 -7
-528 112 0 111 0 0 715 0 716 -147 -3 -147 -3 -63 -250 c-34 -137 -62 -254
-63 -259 -1 -27 -13 21 -59 239 -29 132 -54 248 -57 258 -5 15 -21 17 -156 17
l-151 0 6 -182z"/>
</g>
</svg>
